<svg width="44px" height="54px" viewBox="0 0 44 54" version="1.1" xmlns="http://www.w3.org/2000/svg" xmlns:xlink="http://www.w3.org/1999/xlink">
    <g id="Page-1" stroke="none" stroke-width="1" fill="none" fill-rule="evenodd">
        <g id="locked" fill="#7977FF" fill-rule="nonzero">
            <path d="M38,20.113 L38,14.5 C38,6.505 30.822,0 22,0 C13.178,0 6,6.505 6,14.5 L6,20.113 C2.599,20.699 0,23.663 0,27.23 L0,46.772 C0,50.757 3.243,54 7.229,54 L36.771,54 C40.757,54 44,50.757 44,46.771 L44,27.229 C44,23.663 41.401,20.699 38,20.113 Z M8,14.5 C8,7.607 14.28,2 22,2 C29.72,2 36,7.607 36,14.5 L36,20 L8,20 L8,14.5 Z M42,46.771 C42,49.654 39.654,52 36.771,52 L7.229,52 C4.346,52 2,49.654 2,46.771 L2,27.229 C2,24.346 4.346,22 7.229,22 L36.771,22 C39.654,22 42,24.346 42,27.229 L42,46.771 Z" id="Shape"></path>
            <path d="M22,28 C19.794,28 18,29.794 18,32 L18,38 C18,40.206 19.794,42 22,42 C24.206,42 26,40.206 26,38 L26,32 C26,29.794 24.206,28 22,28 Z M24,38 C24,39.103 23.103,40 22,40 C20.897,40 20,39.103 20,38 L20,32 C20,30.897 20.897,30 22,30 C23.103,30 24,30.897 24,32 L24,38 Z" id="Shape"></path>
        </g>
    </g>
</svg>